<?xml version="1.0" encoding="utf-8"?>
<!-- Generator: Adobe Illustrator 16.0.0, SVG Export Plug-In . SVG Version: 6.00 Build 0)  -->
<!DOCTYPE svg PUBLIC "-//W3C//DTD SVG 1.1//EN" "http://www.w3.org/Graphics/SVG/1.1/DTD/svg11.dtd">
<svg version="1.1" xmlns="http://www.w3.org/2000/svg" xmlns:xlink="http://www.w3.org/1999/xlink" x="0px" y="0px" width="118px"
	 height="40px" viewBox="0 0 118 40" enable-background="new 0 0 118 40" xml:space="preserve">
<g id="Guides_For_Artboard">
</g>
<g id="Layer_1">
	<g>
		<polygon fill="#333333" points="105.974,35.423 107.719,35.423 107.719,40 108.839,40 108.839,35.423 110.583,35.423 
			110.583,34.374 105.974,34.374 		"/>
		<polygon fill="#333333" points="114.459,38.172 112.998,34.374 111.354,34.374 111.354,40 112.475,40 112.475,35.785 
			113.865,39.458 115.051,39.458 116.441,35.753 116.441,40 117.562,40 117.562,34.374 115.918,34.374 		"/>
		<path fill="#333333" d="M107.725,0c-2.196,0-4.291,1.447-4.983,3.442c-0.131,0.38-4.341,16.289-5.999,22.559L89.499,0H78.545
			l-7.246,25.955L64.39,0H0v34.742C0,37.641,2.359,40,5.258,40h5.257V25.202h13.791v-9.629H10.515V9.602h18.75V40H39.78V25.202
			H53.57v-9.629H39.78V9.602h16.525L65.164,40h11.965l6.824-23.342L90.776,40h11.965l11.656-40H107.725z"/>
	</g>
</g>
</svg>
